<?xml version="1.0" encoding="utf-8"?>
<!-- Generator: Adobe Illustrator 26.0.3, SVG Export Plug-In . SVG Version: 6.00 Build 0)  -->
<svg version="1.1" id="圖層_1" xmlns="http://www.w3.org/2000/svg" xmlns:xlink="http://www.w3.org/1999/xlink" x="0px" y="0px"
	 viewBox="0 0 200 78" style="enable-background:new 0 0 200 78;" xml:space="preserve">
<style type="text/css">
	.st0{fill:#FF9000;}
	.st1{fill:#1789FA;}
	.st2{fill:none;}
</style>
<g>
	<g>
		<polygon class="st0" points="32.2,34.4 41.4,39 32.2,43.6 		"/>
	</g>
	<g>
		<path class="st1" d="M50.4,31.1c-1.1-1.9-2.8-2.9-5.1-3.5c-2.5-0.6-6.4-0.9-9.2-0.9c-2.8,0-6.7,0.2-9.2,0.9
			c-2.3,0.6-4.1,1.6-5.1,3.5C20.8,33,20.4,35,20.4,39c0,4,0.5,6,1.5,7.9c1.1,1.9,2.8,2.9,5.1,3.5c2.5,0.6,6.4,0.9,9.2,0.9
			c2.8,0,6.7-0.2,9.2-0.9c2.3-0.6,4.1-1.6,5.1-3.5c1.1-1.9,1.5-3.9,1.5-7.9C51.9,35,51.5,33,50.4,31.1z M46.5,39v7.2
			c0,0-5.5,0.7-10.3,0.7c-4.8,0-10.3-0.7-10.3-0.7V39v-7.2c0,0,5.5-0.7,10.3-0.7c4.8,0,10.3,0.7,10.3,0.7V39z"/>
	</g>
	<g>
		<path class="st2" d="M50.4,6.5c-1.1-1.9-2.8-2.9-5.1-3.5c-2.5-0.6-6.4-0.9-9.2-0.9c-2.8,0-6.7,0.2-9.2,0.9
			c-2.3,0.6-4.1,1.6-5.1,3.5c-1.1,1.9-1.5,3.9-1.5,7.9c0,4,0.5,6,1.5,7.9c1.1,1.9,2.8,2.9,5.1,3.5c2.5,0.6,6.4,0.9,9.2,0.9
			c2.8,0,6.7-0.2,9.2-0.9c2.3-0.6,4.1-1.6,5.1-3.5c1.1-1.9,1.5-3.9,1.5-7.9C51.9,10.4,51.5,8.4,50.4,6.5z M46.5,14.4v7.2
			c0,0-5.5,0.7-10.3,0.7c-4.8,0-10.3-0.7-10.3-0.7v-7.2V7.1c0,0,5.5-0.7,10.3-0.7c4.8,0,10.3,0.7,10.3,0.7V14.4z"/>
	</g>
	<g>
		<path class="st2" d="M50.4,55.7c-1.1-1.9-2.8-2.9-5.1-3.5c-2.5-0.6-6.4-0.9-9.2-0.9c-2.8,0-6.7,0.2-9.2,0.9
			c-2.3,0.6-4.1,1.6-5.1,3.5c-1.1,1.9-1.5,3.9-1.5,7.9c0,4,0.5,6,1.5,7.9c1.1,1.9,2.8,2.9,5.1,3.5c2.5,0.6,6.4,0.9,9.2,0.9
			c2.8,0,6.7-0.2,9.2-0.9c2.3-0.6,4.1-1.6,5.1-3.5c1.1-1.9,1.5-3.9,1.5-7.9C51.9,59.6,51.5,57.6,50.4,55.7z M46.5,63.6v7.2
			c0,0-5.5,0.7-10.3,0.7c-4.8,0-10.3-0.7-10.3-0.7v-7.2v-7.2c0,0,5.5-0.7,10.3-0.7c4.8,0,10.3,0.7,10.3,0.7V63.6z"/>
	</g>
	<g>
		<path class="st2" d="M18.9,31.1c-1.1-1.9-2.8-2.9-5.1-3.5c-2.5-0.6-6.4-0.9-9.2-0.9c-2.8,0-6.7,0.2-9.2,0.9
			c-2.3,0.6-4.1,1.6-5.1,3.5c-1.1,1.9-1.5,3.9-1.5,7.9c0,4,0.5,6,1.5,7.9c1.1,1.9,2.8,2.9,5.1,3.5c2.5,0.6,6.4,0.9,9.2,0.9
			c2.8,0,6.7-0.2,9.2-0.9c2.3-0.6,4.1-1.6,5.1-3.5c1.1-1.9,1.5-3.9,1.5-7.9C20.4,35,19.9,33,18.9,31.1z M14.9,39v7.2
			c0,0-5.5,0.7-10.3,0.7c-4.8,0-10.3-0.7-10.3-0.7V39v-7.2c0,0,5.5-0.7,10.3-0.7c4.8,0,10.3,0.7,10.3,0.7V39z"/>
	</g>
	<g>
		<path class="st2" d="M209.7,31.1c-1.1-1.9-2.8-2.9-5.1-3.5c-2.5-0.6-6.4-0.9-9.2-0.9c-2.8,0-6.7,0.2-9.2,0.9
			c-2.3,0.6-4.1,1.6-5.1,3.5c-1.1,1.9-1.5,3.9-1.5,7.9c0,4,0.5,6,1.5,7.9c1.1,1.9,2.8,2.9,5.1,3.5c2.5,0.6,6.4,0.9,9.2,0.9
			c2.8,0,6.7-0.2,9.2-0.9c2.3-0.6,4.1-1.6,5.1-3.5c1.1-1.9,1.5-3.9,1.5-7.9C211.2,35,210.7,33,209.7,31.1z M205.7,39v7.2
			c0,0-5.5,0.7-10.3,0.7c-4.8,0-10.3-0.7-10.3-0.7V39v-7.2c0,0,5.5-0.7,10.3-0.7c4.8,0,10.3,0.7,10.3,0.7V39z"/>
	</g>
	<g>
		<polygon class="st1" points="56.7,27.6 56.7,50.2 61.6,50.2 61.6,30.8 75,50.2 83.6,50.2 83.6,27.8 78.7,27.8 78.7,47.2 
			65.3,27.6 		"/>
	</g>
	<g>
		<polygon class="st1" points="90.3,27.6 90.3,50.2 115.3,50.2 115.3,45.9 95.2,45.9 95.2,31.9 115,31.9 115,27.6 		"/>
	</g>
	<g>
		<path class="st0" d="M136.8,27.6h-2.1h-3.1h-2.1l-11.5,22.6h5.5l2.5-5.1h14.4l2.5,5.1h5.5L136.8,27.6z M127.9,40.9l5.1-10.2
			l5.1,10.2H127.9z"/>
	</g>
	<g>
		<path class="st0" d="M174.8,28.6c-2.8-1-6.6-1-8.7-1c-2.1,0-14.9,0-14.9,0v11.1v11.4c0,0,14,0,18.1,0c6.7,0,10.3-1.4,10.3-11.4
			C179.7,31.7,177.6,29.6,174.8,28.6z M174.1,46h-17.9V32h17.9V46z"/>
	</g>
	<g>
		<rect x="94.8" y="36.8" class="st1" width="17" height="4"/>
	</g>
</g>
</svg>
